<?xml version="1.0" standalone="no"?>
<!DOCTYPE svg PUBLIC "-//W3C//DTD SVG 20010904//EN"
 "http://www.w3.org/TR/2001/REC-SVG-20010904/DTD/svg10.dtd">
<svg version="1.0" xmlns="http://www.w3.org/2000/svg"
 width="2980.000000pt" height="2980.000000pt" viewBox="0 0 2980.000000 2980.000000"
 preserveAspectRatio="xMidYMid meet">
<metadata>
Created by potrace 1.11, written by Peter Selinger 2001-2013
</metadata>
<g transform="translate(0.000000,2980.000000) scale(0.100000,-0.100000)"
fill="#000000" stroke="none">
<path d="M13700 29793 c-1356 -75 -2543 -427 -3640 -1076 -896 -530 -1727
-1291 -2420 -2212 -587 -782 -1082 -1681 -1445 -2625 -309 -806 -452 -1452
-506 -2288 -13 -213 -7 -906 11 -1107 160 -1846 862 -3688 2197 -5763 173
-268 244 -396 312 -554 271 -633 303 -1338 95 -2128 -160 -611 -463 -1255
-895 -1905 -446 -672 -956 -1236 -1894 -2096 -280 -257 -379 -354 -463 -454
-86 -102 -116 -161 -133 -259 -17 -98 -6 -347 20 -459 117 -508 515 -1147
1233 -1982 480 -558 1181 -1294 1518 -1591 675 -598 1441 -1137 2350 -1656
973 -556 2080 -1058 3039 -1378 652 -217 1085 -302 1229 -240 115 50 185 172
229 404 15 77 18 151 18 476 0 231 -5 449 -13 545 -7 88 -33 392 -57 675 -78
913 -97 1315 -83 1780 14 510 115 1303 244 1920 232 1106 578 1893 1063 2412
133 143 265 185 546 175 226 -9 428 -43 778 -132 320 -81 592 -165 1437 -441
1233 -404 1730 -525 2150 -526 231 0 369 37 469 127 79 71 187 253 292 490
264 598 533 1488 1034 3415 344 1324 463 1737 549 1909 138 271 449 549 906
811 130 74 517 268 870 435 612 291 830 463 830 656 0 31 -5 71 -12 90 -6 19
-86 165 -178 324 -973 1687 -1542 2962 -1820 4074 -110 443 -135 602 -250
1636 -114 1022 -185 1520 -295 2070 -272 1355 -720 2427 -1385 3313 -1101
1468 -2796 2419 -5170 2901 -596 121 -1183 199 -1745 231 -152 9 -875 11
-1015 3z m-1830 -5923 c857 -75 1548 -515 2291 -1460 63 -80 163 -214 223
-297 59 -84 109 -153 111 -153 2 0 41 48 86 108 195 252 491 570 733 786 998
892 2039 1209 2962 901 803 -267 1416 -1022 1642 -2025 162 -717 82 -1298
-278 -2005 -335 -659 -850 -1326 -1610 -2085 -760 -761 -1658 -1496 -2680
-2196 -257 -177 -751 -497 -838 -543 -17 -9 -50 8 -228 117 -1195 732 -2330
1574 -3286 2439 -228 206 -778 758 -950 953 -506 574 -857 1085 -1060 1544
-88 198 -161 421 -193 589 -42 221 -58 617 -34 863 54 557 241 1039 557 1433
401 501 968 829 1677 970 315 63 614 84 875 61z"/>
</g>
</svg>
