<?xml version="1.0" encoding="utf-8"?>
<!-- Generator: Adobe Illustrator 18.1.1, SVG Export Plug-In . SVG Version: 6.00 Build 0)  -->
<svg version="1.1" id="Layer_1" xmlns="http://www.w3.org/2000/svg" xmlns:xlink="http://www.w3.org/1999/xlink" x="0px" y="0px"
	 viewBox="0 0 672.2 974.1" enable-background="new 0 0 672.2 974.1" xml:space="preserve">
<g id="Layer_3">
</g>
<g id="Layer_2">
</g>
<g id="Layer_1_1_">
	<g>
		<path fill="#FFFFFF" d="M357.5,4.7c235.2,38.2,231.9,203.6,244.3,301.7c7.5,55.7,41.6,118,69,165.4c12.5,20.8-62.3,30.7-83.1,64.8
			c-10,16.6-39.1,163.7-60.7,189.5c-20.8,24.9-152.1-49-174.5-26.6c-30.7,30.7-39.9,93.9-44,132.1c-5,56.5,17.5,137.1-6.6,138
			c-23.3,0.8-154.6-46.5-229.4-124.7c-39.9-42.4-79-86.4-71.5-115.5c2.5-10,33.2-29.9,65.7-69C84.9,638,141.4,559,99.8,495
			c-51.5-79-89.8-171.2-69-265.9C40.8,181.7,117.3-34.4,357.5,4.7z M311.7,254.8c-32.4-47.4-64.8-69.8-113.9-59.8
			c-48.2,9.1-78.1,47.4-72.3,100.6c6.6,62.3,111.4,145.4,186.2,190.3c75.6-45.7,166.2-124.7,177.8-186.2
			c6.6-36.6-15-100.6-70.6-105.5C359.1,187.5,311.7,254.8,311.7,254.8z"/>
	</g>
</g>
</svg>
