<?xml version="1.0" encoding="utf-8"?>
<!-- Generator: Adobe Illustrator 18.1.1, SVG Export Plug-In . SVG Version: 6.00 Build 0)  -->
<svg version="1.1" id="Layer_1" xmlns="http://www.w3.org/2000/svg" xmlns:xlink="http://www.w3.org/1999/xlink" x="0px" y="0px"
	 viewBox="156 292 95.3 121.6" enable-background="new 156 292 95.3 121.6" xml:space="preserve">
<g id="Layer_3">
</g>
<g id="Layer_2">
</g>
<g id="Layer_1_1_">
	<g>
		<path fill="#FFFFFF" d="M213.5,297.6c28.3,4.6,27.9,24.5,29.4,36.3c0.9,6.7,5,14.2,8.3,19.9c1.5,2.5-7.5,3.7-10,7.8
			c-1.2,2-4.7,19.7-7.3,22.8c-2.5,3-18.3-5.9-21-3.2c-3.7,3.7-4.8,11.3-5.3,15.9c-0.6,6.8,2.1,16.5-0.8,16.6
			c-2.8,0.1-18.6-5.6-27.6-15c-4.8-5.1-9.5-10.4-8.6-13.9c0.3-1.2,4-3.6,7.9-8.3c2.2-2.7,9-12.2,4-19.9c-6.2-9.5-10.8-20.6-8.3-32
			C175.4,318.9,184.6,292.9,213.5,297.6z M208,327.7c-3.9-5.7-7.8-8.4-13.7-7.2c-5.8,1.1-9.4,5.7-8.7,12.1
			c0.8,7.5,13.4,17.5,22.4,22.9c9.1-5.5,20-15,21.4-22.4c0.8-4.4-1.8-12.1-8.5-12.7C213.7,319.6,208,327.7,208,327.7z"/>
	</g>
</g>
</svg>
